<svg xmlns="http://www.w3.org/2000/svg" xmlns:xlink="http://www.w3.org/1999/xlink" width="22" height="22"><defs><path id="a" d="M0 0h22v22H0z"/></defs><clipPath id="b"><use xlink:href="#a" overflow="visible"/></clipPath><path d="M10.7 0C4.8.2.2 4.9 0 10.7V22h11c6 0 10.8-4.8 11-10.7V0H10.7z" clip-path="url(#b)" fill="#fff"/><defs><path id="c" d="M16.3 0h-5.6C4.8.2.2 4.9 0 10.7V22h11c6 0 10.8-4.8 11-10.7V0h-5.7z"/></defs><clipPath id="d"><use xlink:href="#c" overflow="visible"/></clipPath><path clip-path="url(#d)" fill="#e61b22" d="M-.6-.1h33.1v5.5H-.6z"/><defs><path id="e" d="M16.3 0h-5.6C4.8.2.2 4.9 0 10.7V22h11c6 0 10.8-4.8 11-10.7V0h-5.7z"/></defs><clipPath id="f"><use xlink:href="#e" overflow="visible"/></clipPath><path clip-path="url(#f)" fill="#e61b22" d="M-.6 16.5h33.1V22H-.6z"/><defs><path id="g" d="M16.3 0h-5.6C4.8.2.2 4.9 0 10.7V22h11c6 0 10.8-4.8 11-10.7V0h-5.7z"/></defs><clipPath id="h"><use xlink:href="#g" overflow="visible"/></clipPath><path clip-path="url(#h)" fill="#ffcd0c" d="M-.6 5.4h33.1v11.1H-.6z"/></svg>