<svg xmlns="http://www.w3.org/2000/svg" xmlns:xlink="http://www.w3.org/1999/xlink" width="22" height="22"><defs><path id="a" d="M0 0h22v22H0z"/></defs><clipPath id="b"><use xlink:href="#a" overflow="visible"/></clipPath><path d="M10.7 0C4.8.2.2 4.9 0 10.7V22h11c6 0 10.8-4.8 11-10.7V0H10.7z" clip-path="url(#b)" fill="#fff"/><defs><path id="c" d="M16.3 0h-5.6C4.8.2.2 4.9 0 10.7V22h11c6 0 10.8-4.8 11-10.7V0h-5.7z"/></defs><clipPath id="d"><use xlink:href="#c" overflow="visible"/></clipPath><path clip-path="url(#d)" fill="#ed1c24" d="M28 9.8H12.8V-4.3H9.4V9.8H-5.9v3.7H9.4v15.9h3.4V13.5H28z"/><defs><path id="e" d="M16.3 0h-5.6C4.8.2.2 4.9 0 10.7V22h11c6 0 10.8-4.8 11-10.7V0h-5.7z"/></defs><clipPath id="f"><use xlink:href="#e" overflow="visible"/></clipPath><path clip-path="url(#f)" fill="#1a2f7c" d="M8.3 2.4V8L-2 2.4z"/><defs><path id="g" d="M16.3 0h-5.6C4.8.2.2 4.9 0 10.7V22h11c6 0 10.8-4.8 11-10.7V0h-5.7z"/></defs><clipPath id="h"><use xlink:href="#g" overflow="visible"/></clipPath><path clip-path="url(#h)" fill="#ed1c24" d="M-5.9 2.4v1.4l8.8 4.8h2.5z"/><defs><path id="i" d="M16.3 0h-5.6C4.8.2.2 4.9 0 10.7V22h11c6 0 10.8-4.8 11-10.7V0h-5.7z"/></defs><clipPath id="j"><use xlink:href="#i" overflow="visible"/></clipPath><path clip-path="url(#j)" fill="#1a2f7c" d="M-5.9 4.5v4.1h7.6z"/><defs><path id="k" d="M16.3 0h-5.6C4.8.2.2 4.9 0 10.7V22h11c6 0 10.8-4.8 11-10.7V0h-5.7z"/></defs><clipPath id="l"><use xlink:href="#k" overflow="visible"/></clipPath><path clip-path="url(#l)" fill="#1a2f7c" d="M13.9 2.4V8l10.3-5.6z"/><defs><path id="m" d="M16.3 0h-5.6C4.8.2.2 4.9 0 10.7V22h11c6 0 10.8-4.8 11-10.7V0h-5.7z"/></defs><clipPath id="n"><use xlink:href="#m" overflow="visible"/></clipPath><path clip-path="url(#n)" fill="#ed1c24" d="M25.5 2.4H28L16.8 8.6h-2.6z"/><defs><path id="o" d="M16.3 0h-5.6C4.8.2.2 4.9 0 10.7V22h11c6 0 10.8-4.8 11-10.7V0h-5.7z"/></defs><clipPath id="p"><use xlink:href="#o" overflow="visible"/></clipPath><path clip-path="url(#p)" fill="#1a2f7c" d="M28 4.5v4.1h-7.5z"/><defs><path id="q" d="M16.3 0h-5.6C4.8.2.2 4.9 0 10.7V22h11c6 0 10.8-4.8 11-10.7V0h-5.7z"/></defs><clipPath id="r"><use xlink:href="#q" overflow="visible"/></clipPath><path clip-path="url(#r)" fill="#1a2f7c" d="M8.3 15.3L-2 20.9H8.3"/><defs><path id="s" d="M16.3 0h-5.6C4.8.2.2 4.9 0 10.7V22h11c6 0 10.8-4.8 11-10.7V0h-5.7z"/></defs><clipPath id="t"><use xlink:href="#s" overflow="visible"/></clipPath><path clip-path="url(#t)" fill="#ed1c24" d="M7.9 14.7l-11.3 6.2h-2.5l11.2-6.2"/><defs><path id="u" d="M16.3 0h-5.6C4.8.2.2 4.9 0 10.7V22h11c6 0 10.8-4.8 11-10.7V0h-5.7z"/></defs><clipPath id="v"><use xlink:href="#u" overflow="visible"/></clipPath><path clip-path="url(#v)" fill="#1a2f7c" d="M1.7 14.7l-7.6 4.1v-4.1"/><defs><path id="w" d="M16.3 0h-5.6C4.8.2.2 4.9 0 10.7V22h11c6 0 10.8-4.8 11-10.7V0h-5.7z"/></defs><clipPath id="x"><use xlink:href="#w" overflow="visible"/></clipPath><path clip-path="url(#x)" fill="#1a2f7c" d="M13.8 20.9v-5.6l10.3 5.6z"/><defs><path id="y" d="M16.3 0h-5.6C4.8.2.2 4.9 0 10.7V22h11c6 0 10.8-4.8 11-10.7V0h-5.7z"/></defs><clipPath id="z"><use xlink:href="#y" overflow="visible"/></clipPath><path clip-path="url(#z)" fill="#ed1c24" d="M28 20.9v-1.4l-8.8-4.8h-2.5z"/><defs><path id="A" d="M16.3 0h-5.6C4.8.2.2 4.9 0 10.7V22h11c6 0 10.8-4.8 11-10.7V0h-5.7z"/></defs><clipPath id="B"><use xlink:href="#A" overflow="visible"/></clipPath><path clip-path="url(#B)" fill="#1a2f7c" d="M28 18.8v-4.1h-7.5z"/><defs><path id="C" d="M16.3 0h-5.6C4.8.2.2 4.9 0 10.7V22h11c6 0 10.8-4.8 11-10.7V0h-5.7z"/></defs><clipPath id="D"><use xlink:href="#C" overflow="visible"/></clipPath><path clip-path="url(#D)" fill="#1a2f7c" d="M-.5 20.3h8.8v2.6H-.5z"/><defs><path id="E" d="M16.3 0h-5.6C4.8.2.2 4.9 0 10.7V22h11c6 0 10.8-4.8 11-10.7V0h-5.7z"/></defs><clipPath id="F"><use xlink:href="#E" overflow="visible"/></clipPath><path clip-path="url(#F)" fill="#1a2f7c" d="M.1.1h8.2v2.6H.1z"/><defs><path id="G" d="M16.3 0h-5.6C4.8.2.2 4.9 0 10.7V22h11c6 0 10.8-4.8 11-10.7V0h-5.7z"/></defs><clipPath id="H"><use xlink:href="#G" overflow="visible"/></clipPath><path clip-path="url(#H)" fill="#1a2f7c" d="M13.9.1h12.7v2.6H13.9z"/><defs><path id="I" d="M16.3 0h-5.6C4.8.2.2 4.9 0 10.7V22h11c6 0 10.8-4.8 11-10.7V0h-5.7z"/></defs><clipPath id="J"><use xlink:href="#I" overflow="visible"/></clipPath><path clip-path="url(#J)" fill="#1a2f7c" d="M13.8 20.3H22v2.6h-8.2z"/></svg>